<?xml version="1.0" encoding="UTF-8"?>
<svg id="Layer_2" data-name="Layer 2" xmlns="http://www.w3.org/2000/svg" viewBox="0 0 1316.08 1316.08">
  <defs>
    <style>
      .cls-1 {
        fill: #fff;
        stroke-width: 0px;
      }
    </style>
  </defs>
  <g id="Layer_5" data-name="Layer 5">
    <g>
      <polygon class="cls-1" points="877.4 1096.74 804.27 1169.85 731.16 1242.97 658.04 1316.08 584.93 1242.97 511.81 1169.85 438.7 1096.74 511.81 1023.61 584.93 1096.74 658.04 1169.85 731.16 1096.74 804.27 1023.61 877.4 1096.74"/>
      <polygon class="cls-1" points="1316.08 658.04 1242.97 731.15 1169.85 804.27 1096.74 877.38 1023.61 950.51 950.51 1023.61 877.38 950.51 804.27 877.38 731.15 804.27 804.27 731.15 877.38 804.27 950.51 877.38 1169.85 658.04 1096.74 584.93 1023.61 511.81 950.51 438.7 877.38 511.81 804.27 584.93 731.15 658.04 658.04 731.15 584.93 804.27 511.81 877.38 438.7 950.51 365.57 1023.61 292.47 950.51 219.36 877.4 73.12 731.16 0 658.04 73.12 584.93 146.23 511.81 219.36 438.7 292.47 365.57 365.57 292.47 438.7 365.57 511.81 438.7 584.93 511.81 511.81 584.93 438.7 511.81 365.57 438.7 292.47 511.81 219.36 584.93 146.23 658.04 219.36 731.16 292.47 804.27 365.57 877.38 438.7 804.27 511.81 731.15 584.93 658.04 658.04 584.93 731.15 511.81 804.27 438.7 877.38 365.57 950.51 292.47 1023.61 365.57 1096.74 438.7 1169.85 511.81 1316.08 658.04"/>
      <polygon class="cls-1" points="877.4 219.36 804.27 292.47 731.16 219.36 731.15 219.34 658.04 146.23 584.93 219.34 511.81 292.47 438.7 219.34 511.81 146.23 584.93 73.11 658.04 0 731.16 73.12 804.27 146.23 877.38 219.34 877.4 219.36"/>
    </g>
  </g>
</svg>